<svg width="14" height="14" viewBox="0 0 14 14" fill="none" xmlns="http://www.w3.org/2000/svg">
<g clip-path="url(#clip0_993_58)">
<path d="M6.79516 2.54785C3.96391 2.54785 1.54602 4.30889 0.566406 6.79473C1.54602 9.28056 3.96391 11.0416 6.79516 11.0416C9.62641 11.0416 12.0443 9.28056 13.0239 6.79473C12.0443 4.30889 9.62641 2.54785 6.79516 2.54785V2.54785ZM6.79516 9.62598C5.23231 9.62598 3.96391 8.35758 3.96391 6.79473C3.96391 5.23188 5.23231 3.96348 6.79516 3.96348C8.35801 3.96348 9.62641 5.23188 9.62641 6.79473C9.62641 8.35758 8.35801 9.62598 6.79516 9.62598ZM6.79516 5.09598C5.85518 5.09598 5.09641 5.85475 5.09641 6.79473C5.09641 7.7347 5.85518 8.49348 6.79516 8.49348C7.73513 8.49348 8.49391 7.7347 8.49391 6.79473C8.49391 5.85475 7.73513 5.09598 6.79516 5.09598Z" fill="#1976D2"/>
</g>
<defs>
<clipPath id="clip0_993_58">
<rect width="13.59" height="13.59" fill="white"/>
</clipPath>
</defs>
</svg>
