<svg width="50" height="50" viewBox="0 0 50 50" fill="none" xmlns="http://www.w3.org/2000/svg">
<g clip-path="url(#clip0_1451_158)">
<path d="M38 0H12C5.37258 0 0 5.37258 0 12V38C0 44.6274 5.37258 50 12 50H38C44.6274 50 50 44.6274 50 38V12C50 5.37258 44.6274 0 38 0Z" fill="#D7FDFF"/>
<g clip-path="url(#clip1_1451_158)">
<path d="M24 8C24 7.33726 24.3372 7 25 7C34.9411 7 43 15.0589 43 25C43 34.9411 34.9411 43 25 43C15.0589 43 7 34.9411 7 25C7 24.3372 7.33726 24 8 24C8.66274 24 9 24.3202 9 25C9 33.8366 16.1634 41 25 41C33.8366 41 41 33.8366 41 25C41 16.1634 33.8366 9 25 9C24.3202 9 24 8.66274 24 8Z" fill="#32CFD9"/>
<path d="M16.1636 9.03637C16.726 9.03637 17.1818 8.58051 17.1818 8.01818C17.1818 7.45586 16.726 7 16.1636 7H8.01818C7.45586 7 7 7.45586 7 8.01818C7 8.58051 7.45586 9.03637 8.01818 9.03637H16.1636Z" fill="#32CFD9"/>
<path d="M14.6364 12.5997C14.6364 13.1621 14.1805 13.6179 13.6182 13.6179H8.01818C7.45586 13.6179 7 13.1621 7 12.5997C7 12.0374 7.45586 11.5815 8.01818 11.5815H13.6182C14.1805 11.5815 14.6364 12.0374 14.6364 12.5997Z" fill="#32CFD9"/>
<path d="M10.5636 18.2002C11.126 18.2002 11.5818 17.7443 11.5818 17.182C11.5818 16.6197 11.126 16.1638 10.5636 16.1638H8.01818C7.45586 16.1638 7 16.6197 7 17.182C7 17.7443 7.45586 18.2002 8.01818 18.2002H10.5636Z" fill="#32CFD9"/>
<path d="M35.7277 21.114C36.1235 21.114 36.4927 21.2282 36.8353 21.4566C37.1854 21.6849 37.4671 21.9932 37.6802 22.3815C37.8934 22.7697 38 23.2036 38 23.6832C38 24.1551 37.8934 24.5852 37.6802 24.9735C37.4671 25.3617 37.1854 25.6738 36.8353 25.9098C36.4927 26.1381 36.1235 26.2523 35.7277 26.2523H33.6267L33.7409 26.0468V28.4104C33.7409 28.6083 33.68 28.7758 33.5582 28.9128C33.4364 29.0422 33.2765 29.107 33.0786 29.107C32.8883 29.107 32.7322 29.0422 32.6104 28.9128C32.4886 28.7758 32.4277 28.6083 32.4277 28.4104V21.8105C32.4277 21.6126 32.4924 21.449 32.6218 21.3195C32.7589 21.1825 32.9263 21.114 33.1243 21.114H35.7277ZM35.7277 24.9506C35.8723 24.9506 36.0131 24.8897 36.1502 24.7679C36.2872 24.6461 36.4014 24.4901 36.4927 24.2998C36.5841 24.1019 36.6297 23.8963 36.6297 23.6832C36.6297 23.4624 36.5841 23.2569 36.4927 23.0666C36.4014 22.8763 36.2872 22.724 36.1502 22.6098C36.0131 22.488 35.8723 22.4271 35.7277 22.4271H33.6038L33.7409 22.2216V25.1333L33.6153 24.9506H35.7277Z" fill="#32CFD9"/>
<path d="M28.6406 22.9071L26.1742 28.7077C26.1209 28.8523 26.0372 28.9665 25.923 29.0502C25.8164 29.1263 25.6985 29.1644 25.569 29.1644C25.3635 29.1644 25.2113 29.1073 25.1123 28.9931C25.0133 28.8789 24.9639 28.7381 24.9639 28.5706C24.9639 28.5021 24.9753 28.4298 24.9981 28.3537L27.8413 21.5254C27.9022 21.3732 27.9936 21.2552 28.1154 21.1715C28.2448 21.0877 28.3818 21.0535 28.5264 21.0687C28.6635 21.0687 28.7891 21.1106 28.9032 21.1943C29.025 21.2704 29.1126 21.3808 29.1659 21.5254L31.9748 28.2167C32.0129 28.3156 32.0319 28.407 32.0319 28.4907C32.0319 28.6962 31.9634 28.8599 31.8264 28.9817C31.697 29.1035 31.5523 29.1644 31.3925 29.1644C31.2555 29.1644 31.1298 29.1225 31.0157 29.0388C30.9091 28.9551 30.8254 28.8409 30.7645 28.6962L28.3095 22.9756L28.6406 22.9071ZM26.5282 27.3146L27.1562 26.0015H30.2392L30.4562 27.3146H26.5282Z" fill="#32CFD9"/>
<path d="M22.0333 29.2213C21.5004 29.2213 21.0208 29.1566 20.5945 29.0272C20.1682 28.8902 19.761 28.6542 19.3728 28.3192C19.2738 28.2355 19.1977 28.1404 19.1444 28.0338C19.0911 27.9272 19.0645 27.8206 19.0645 27.7141C19.0645 27.539 19.1254 27.3867 19.2471 27.2573C19.3766 27.1203 19.5364 27.0518 19.7267 27.0518C19.8714 27.0518 20.0008 27.0975 20.115 27.1888C20.4042 27.4248 20.6897 27.6037 20.9713 27.7255C21.2606 27.8473 21.6146 27.9082 22.0333 27.9082C22.3149 27.9082 22.5737 27.8663 22.8097 27.7826C23.0457 27.6912 23.236 27.5732 23.3806 27.4286C23.5253 27.2764 23.5976 27.1051 23.5976 26.9148C23.5976 26.6864 23.5291 26.4923 23.3921 26.3324C23.255 26.1726 23.0457 26.0394 22.764 25.9328C22.4824 25.8186 22.1246 25.7311 21.6907 25.6702C21.2796 25.6093 20.9181 25.5179 20.6059 25.3961C20.2938 25.2667 20.0312 25.1068 19.8181 24.9165C19.6125 24.7186 19.4565 24.4903 19.3499 24.2314C19.2433 23.965 19.1901 23.6681 19.1901 23.3408C19.1901 22.846 19.3157 22.4235 19.5669 22.0733C19.8257 21.7232 20.172 21.4567 20.6059 21.274C21.0399 21.0913 21.5194 21 22.0447 21C22.5395 21 22.9962 21.0761 23.4149 21.2284C23.8412 21.373 24.1875 21.5595 24.454 21.7879C24.6747 21.963 24.7851 22.1647 24.7851 22.3931C24.7851 22.5605 24.7204 22.7128 24.591 22.8498C24.4616 22.9868 24.3093 23.0553 24.1343 23.0553C24.0201 23.0553 23.9173 23.0211 23.826 22.9526C23.7042 22.846 23.5405 22.747 23.335 22.6557C23.1294 22.5567 22.9125 22.4768 22.6841 22.4159C22.4557 22.3474 22.2426 22.3131 22.0447 22.3131C21.7173 22.3131 21.4395 22.355 21.2111 22.4387C20.9904 22.5225 20.8229 22.6366 20.7087 22.7813C20.5945 22.9259 20.5374 23.0934 20.5374 23.2837C20.5374 23.5121 20.6021 23.7024 20.7316 23.8546C20.8686 23.9993 21.0627 24.1172 21.3139 24.2086C21.5651 24.2923 21.8658 24.3685 22.216 24.437C22.6727 24.5207 23.0723 24.6197 23.4149 24.7338C23.7651 24.848 24.0543 24.9965 24.2827 25.1792C24.5111 25.3542 24.6823 25.5788 24.7965 25.8529C24.9107 26.1193 24.9678 26.4466 24.9678 26.8348C24.9678 27.3296 24.8308 27.7559 24.5567 28.1137C24.2827 28.4715 23.9211 28.7455 23.472 28.9358C23.0305 29.1262 22.5509 29.2213 22.0333 29.2213Z" fill="#32CFD9"/>
<path d="M15.6768 22.9068L13.2104 28.7074C13.1571 28.8521 13.0733 28.9662 12.9592 29.05C12.8526 29.1261 12.7346 29.1642 12.6052 29.1642C12.3996 29.1642 12.2474 29.1071 12.1484 28.9929C12.0495 28.8787 12 28.7379 12 28.5704C12 28.5019 12.0114 28.4296 12.0343 28.3534L14.8775 21.5252C14.9384 21.3729 15.0297 21.255 15.1515 21.1712C15.2809 21.0875 15.4179 21.0532 15.5626 21.0685C15.6996 21.0685 15.8252 21.1103 15.9394 21.1941C16.0612 21.2702 16.1487 21.3806 16.202 21.5252L19.0109 28.2164C19.049 28.3154 19.068 28.4067 19.068 28.4905C19.068 28.696 18.9995 28.8597 18.8625 28.9815C18.7331 29.1033 18.5885 29.1642 18.4286 29.1642C18.2916 29.1642 18.166 29.1223 18.0518 29.0386C17.9452 28.9548 17.8615 28.8406 17.8006 28.696L15.3456 22.9753L15.6768 22.9068ZM13.5643 27.3144L14.1923 26.0012H17.2753L17.4923 27.3144H13.5643Z" fill="#32CFD9"/>
</g>
</g>
<defs>
<clipPath id="clip0_1451_158">
<rect width="50" height="50" fill="white"/>
</clipPath>
<clipPath id="clip1_1451_158">
<rect width="36" height="36" fill="white" transform="translate(7 7)"/>
</clipPath>
</defs>
</svg>
