<svg width="50" height="50" viewBox="0 0 50 50" fill="none" xmlns="http://www.w3.org/2000/svg">
<g clip-path="url(#clip0_1451_203)">
<path d="M38 0H12C5.37258 0 0 5.37258 0 12V38C0 44.6274 5.37258 50 12 50H38C44.6274 50 50 44.6274 50 38V12C50 5.37258 44.6274 0 38 0Z" fill="#D7E9E1"/>
<g clip-path="url(#clip1_1451_203)">
<path d="M25.0047 27.4941C25.1751 27.5913 25.3601 27.6373 25.5434 27.6373C25.9212 27.6373 26.2884 27.4405 26.4899 27.0893C26.7875 26.5677 26.6066 25.9029 26.085 25.6048C21.9361 23.2351 19.7249 20.596 19.1238 17.3004C18.8569 15.8353 19.1662 13.6636 20.4586 12.1142C21.5312 10.8277 23.0817 10.1759 25.0666 10.1759C28.1647 10.1759 30.3748 11.8926 30.9782 14.7668C31.5729 17.595 30.3253 21.2713 26.7916 22.8242C26.2424 23.0664 25.9919 23.7082 26.2335 24.258C26.4763 24.8079 27.1169 25.0584 27.668 24.8161C32.2624 22.7964 33.8825 18.007 33.1081 14.3194C32.4663 11.2643 30.0164 8 25.0666 8C21.7527 8 19.8227 9.47927 18.7878 10.7204C16.9249 12.9528 16.6508 15.8706 16.9827 17.6905C17.935 22.9132 22.0174 25.7874 25.0047 27.4941Z" fill="#3E8A76"/>
<path d="M39.3448 39.8242H11.7474C11.7857 35.2303 12.0686 32.2147 12.5907 30.8504C13.2791 29.0529 16.2382 27.4228 18.068 26.6113C19.1689 28.9403 22.069 33.9168 24.1111 36.6749C24.5213 37.2283 25.45 37.2283 25.8596 36.6749C27.9017 33.9174 30.8018 28.9403 31.9021 26.6113C33.7331 27.4228 36.6922 29.0523 37.3805 30.8516C38.0595 32.6208 38.0235 34.7188 37.9916 36.5693C37.9851 36.9623 37.9787 37.3448 37.9787 37.7108C37.9787 38.3119 38.4655 38.7993 39.0666 38.7993C39.6677 38.7993 40.1546 38.312 40.1546 37.7108C40.1546 37.356 40.1611 36.9877 40.1675 36.607C40.2034 34.5579 40.243 32.2365 39.4125 30.0724C38.0907 26.6183 32.3788 24.429 31.7317 24.1908C31.2001 23.9957 30.6049 24.2409 30.3674 24.7572C30.3332 24.8315 27.3265 30.3548 24.9862 34.083C22.6459 30.3549 19.6386 24.8315 19.6044 24.7572C19.3668 24.2416 18.7722 23.9958 18.24 24.1908C17.5935 24.4289 11.8823 26.6183 10.5604 30.0724C9.66991 32.3927 9.56738 37.3702 9.56738 40.9121C9.56738 41.5126 10.0542 42.0001 10.6553 42.0001H39.3448C39.9459 42.0001 40.4327 41.5132 40.4327 40.9121C40.4327 40.311 39.9459 39.8242 39.3448 39.8242Z" fill="#3E8A76"/>
<path d="M33 32V38" stroke="#3E8A76" stroke-width="1.5" stroke-linecap="round" stroke-linejoin="round"/>
<path d="M30.6924 32.9231L35.3078 37.0769" stroke="#3E8A76" stroke-width="1.5" stroke-linecap="round" stroke-linejoin="round"/>
<path d="M35.3078 32.9231L30.6924 37.0769" stroke="#3E8A76" stroke-width="1.5" stroke-linecap="round" stroke-linejoin="round"/>
<path d="M30 35H36" stroke="#3E8A76" stroke-width="1.5" stroke-linecap="round" stroke-linejoin="round"/>
</g>
</g>
<defs>
<clipPath id="clip0_1451_203">
<rect width="50" height="50" fill="white"/>
</clipPath>
<clipPath id="clip1_1451_203">
<rect width="34" height="34" fill="white" transform="translate(8 8)"/>
</clipPath>
</defs>
</svg>
